<svg id="_340_web_developer_outline" data-name="#340_web_developer_outline" xmlns="http://www.w3.org/2000/svg" viewBox="0 0 400 300" width="406" height="306" class="illustration styles_illustrationTablet__1DWOa"><path d="M220.28,162.2H237.7A30.7,30.7,0,0,1,267,183.9l9.41,30.69a7.33,7.33,0,0,1-7,9.49h-80.9a7.33,7.33,0,0,1-7-9.49l9.41-30.69A30.7,30.7,0,0,1,220.28,162.2Z" fill="#68e1fd"></path><path d="M269.44,225.08h-80.9a8.34,8.34,0,0,1-8-10.78L190,183.61a31.54,31.54,0,0,1,30.3-22.41H237.7A31.54,31.54,0,0,1,268,183.61l9.41,30.69a8.34,8.34,0,0,1-8,10.78ZM220.28,163.2a29.55,29.55,0,0,0-28.39,21l-9.41,30.69a6.35,6.35,0,0,0,6.06,8.2h80.9a6.35,6.35,0,0,0,6.06-8.2l-9.41-30.69a29.55,29.55,0,0,0-28.39-21Z" fill="#093f68"></path><path d="M223.67,158.74h10.64a0,0,0,0,1,0,0v6.12a4.52,4.52,0,0,1-4.52,4.52h-1.61a4.52,4.52,0,0,1-4.52-4.52v-6.12A0,0,0,0,1,223.67,158.74Z" fill="#ffc9b0"></path><path d="M229.79,170.37h-1.6a5.52,5.52,0,0,1-5.52-5.51v-6.12a1,1,0,0,1,1-1h10.64a1,1,0,0,1,1,1v6.12A5.52,5.52,0,0,1,229.79,170.37Zm-5.12-10.63v5.12a3.52,3.52,0,0,0,3.52,3.51h1.6a3.52,3.52,0,0,0,3.52-3.51v-5.12Z" fill="#093f68"></path><path d="M192.27,129.23c-4.94-1.87-4.64-5.65-5.38-10.49a123.35,123.35,0,0,1-1.37-14.48c-.19-5.51,0-11.17,2.1-16.28,2.69-6.57,8-10.81,15.09-10.23-.21-9.68,5.6-18.76,15.89-19.31,16.49-.88,26,16.83,35.21,15.51s11.68-5.42,11.68-5.42a16.92,16.92,0,0,1-2,18.67s7.27-2.12,8.15,7.55-4.91,35.37-4.91,35.37L260.16,129c-2.77-.49-6.23.19-9,.28l-20.61.64C220.21,130.21,203.49,133.47,192.27,129.23Z" fill="#725858"></path><path d="M207.13,132.38c-5.42,0-10.75-.53-15.22-2.22h0c-4.79-1.82-5.23-5.28-5.74-9.29q-.12-1-.27-2a125,125,0,0,1-1.38-14.6c-.18-5.17-.06-11.21,2.18-16.68,2.85-7,8.17-10.91,14.7-10.91h.31c.22-9.31,5.93-18.68,16.84-19.26,9.59-.5,17,5.09,22.92,9.58,4.58,3.47,8.54,6.46,12.19,5.94,8.55-1.22,11-4.91,11-4.95a1,1,0,0,1,.86-.47,1,1,0,0,1,.86.49c.05.09,5.06,8.92-.76,18a6.83,6.83,0,0,1,3.48,1.14c2,1.4,3.25,3.92,3.57,7.51.89,9.72-4.68,34.62-4.92,35.68a1,1,0,0,1-1.15.76L260,130a23.69,23.69,0,0,0-5.87.08c-1,.1-2,.19-3,.22l-20.61.64c-2.57.08-5.59.35-8.78.63C217.23,131.93,212.14,132.38,207.13,132.38Zm-14.51-4.09c8.18,3.1,19.71,2.07,29,1.24,3.22-.29,6.27-.56,8.9-.64l20.61-.64c.87,0,1.82-.12,2.82-.21a25,25,0,0,1,6.4-.06h0c.35,0,1.49.25,5.65,1,1-4.68,5.44-25.75,4.68-34.13-.27-3-1.17-5-2.69-6a5.46,5.46,0,0,0-4.18-.66,1,1,0,0,1-1.11-.41,1,1,0,0,1,.06-1.18,15.72,15.72,0,0,0,2.5-16.24c-1.53,1.44-4.86,3.69-11.29,4.61-4.48.63-8.75-2.59-13.69-6.32-6-4.53-12.75-9.65-21.6-9.18-10.06.53-15.14,9.61-14.95,18.29a1,1,0,0,1-.32.75,1,1,0,0,1-.77.27c-6.24-.52-11.37,3-14.07,9.61-2.09,5.13-2.2,10.9-2,15.86a123,123,0,0,0,1.35,14.36c.11.71.2,1.38.28,2,.48,3.78.8,6.28,4.47,7.67Z" fill="#093f68"></path><ellipse cx="198.59" cy="131.11" rx="10.33" ry="8.9" fill="#ffc9b0"></ellipse><path d="M198.59,141c-6.25,0-11.33-4.44-11.33-9.9s5.08-9.91,11.33-9.91,11.34,4.45,11.34,9.91S204.84,141,198.59,141Zm0-17.81c-5.14,0-9.33,3.55-9.33,7.91s4.19,7.9,9.33,7.9,9.34-3.54,9.34-7.9S203.74,123.2,198.59,123.2Z" fill="#093f68"></path><ellipse cx="258.84" cy="131.11" rx="10.33" ry="8.9" fill="#ffc9b0"></ellipse><path d="M258.84,141c-6.25,0-11.34-4.44-11.34-9.9s5.09-9.91,11.34-9.91,11.33,4.45,11.33,9.91S265.09,141,258.84,141Zm0-17.81c-5.15,0-9.34,3.55-9.34,7.91s4.19,7.9,9.34,7.9,9.33-3.54,9.33-7.9S264,123.2,258.84,123.2Z" fill="#093f68"></path><path d="M229,160.13h0A31.17,31.17,0,0,1,197.82,129V106.34c1.82,3,7.87,1.8,16.74-13.41,33.2,16.82,45.6,7.18,45.6,7.18V129A31.17,31.17,0,0,1,229,160.13Z" fill="#ffc9b0"></path><path d="M229,161.13A32.2,32.2,0,0,1,196.82,129V106.34a1,1,0,0,1,1.86-.52,1.66,1.66,0,0,0,1.53.83h0c1.22,0,5.8-1.07,13.47-14.23A1,1,0,0,1,215,92c32.08,16.25,44.42,7.37,44.54,7.28a1,1,0,0,1,1.61.8V129A32.2,32.2,0,0,1,229,161.13Zm-30.17-52.72V129a30.17,30.17,0,0,0,60.34,0V101.83c-4.32,2-17.59,5.68-44.21-7.59-5.52,9.27-10.73,14.38-14.7,14.41A3.44,3.44,0,0,1,198.82,108.41Z" fill="#093f68"></path><path d="M249,216.72a1,1,0,0,1-1-1V179.14a1,1,0,0,1,2,0v36.58A1,1,0,0,1,249,216.72Z" fill="#093f68"></path><path d="M209,216.72a1,1,0,0,1-1-1V179.14a1,1,0,0,1,2,0v36.58A1,1,0,0,1,209,216.72Z" fill="#093f68"></path><path d="M228.92,134.69a20.75,20.75,0,0,1-3.13-.26,1,1,0,0,1,.35-2,15.28,15.28,0,0,0,4.75,0c.2-.92-1-4.35-2.7-7.58A1,1,0,1,1,230,124c1.12,2.15,3.63,7.37,2.71,9.42a1.72,1.72,0,0,1-1.16,1A10.74,10.74,0,0,1,228.92,134.69Z" fill="#093f68"></path><path d="M222,110.73h0l-15.28,0a2,2,0,1,1,0-4h0l15.29,0a2,2,0,0,1,0,4Z" fill="#093f68"></path><path d="M250.25,110.73h0l-15.28,0a2,2,0,1,1,0-4h0l15.28,0a2,2,0,0,1,0,4Z" fill="#093f68"></path><path d="M205.39,116.21h18a2.56,2.56,0,0,1,2.56,2.56v1.67a8.63,8.63,0,0,1-8.63,8.63h-5.87a8.63,8.63,0,0,1-8.63-8.63v-1.67A2.56,2.56,0,0,1,205.39,116.21Z" fill="#fff"></path><path d="M217.33,130.08h-5.86a9.64,9.64,0,0,1-9.63-9.63v-1.68a3.56,3.56,0,0,1,3.55-3.56h18a3.57,3.57,0,0,1,3.56,3.56v1.68A9.64,9.64,0,0,1,217.33,130.08Zm-11.94-12.87a1.55,1.55,0,0,0-1.55,1.56v1.68a7.64,7.64,0,0,0,7.63,7.63h5.86a7.65,7.65,0,0,0,7.64-7.63v-1.68a1.56,1.56,0,0,0-1.56-1.56Z" fill="#093f68"></path><path d="M234.45,116.21h18a2.56,2.56,0,0,1,2.56,2.56v1.67a8.63,8.63,0,0,1-8.63,8.63h-5.87a8.63,8.63,0,0,1-8.63-8.63v-1.67A2.56,2.56,0,0,1,234.45,116.21Z" fill="#fff"></path><path d="M246.39,130.08h-5.86a9.64,9.64,0,0,1-9.64-9.63v-1.68a3.57,3.57,0,0,1,3.56-3.56h18a3.56,3.56,0,0,1,3.55,3.56v1.68A9.64,9.64,0,0,1,246.39,130.08Zm-11.94-12.87a1.56,1.56,0,0,0-1.56,1.56v1.68a7.65,7.65,0,0,0,7.64,7.63h5.86a7.64,7.64,0,0,0,7.63-7.63v-1.68a1.55,1.55,0,0,0-1.55-1.56Z" fill="#093f68"></path><path d="M202.84,121.45H197a1,1,0,0,1,0-2h5.81a1,1,0,0,1,0,2Z" fill="#093f68"></path><path d="M261.12,121.45h-5.8a1,1,0,0,1,0-2h5.8a1,1,0,0,1,0,2Z" fill="#093f68"></path><path d="M231.89,121.45H226a1,1,0,0,1,0-2h5.92a1,1,0,0,1,0,2Z" fill="#093f68"></path><path d="M228.33,144.33a28.87,28.87,0,0,1-10.44-1.91,1,1,0,0,1,.72-1.87,29.23,29.23,0,0,0,19.77,0,1,1,0,0,1,.77,1.85A30.56,30.56,0,0,1,228.33,144.33Z" fill="#093f68"></path><path d="M256.41,208.32a1,1,0,0,1-1-.8,1,1,0,0,1,.78-1.18l11.06-2.26a1,1,0,0,1,.4,2l-11.06,2.25A.64.64,0,0,1,256.41,208.32Z" fill="#093f68"></path><path d="M201.57,208.32a.64.64,0,0,1-.2,0L190.31,206a1,1,0,1,1,.4-2l11.06,2.26a1,1,0,0,1,.78,1.18A1,1,0,0,1,201.57,208.32Z" fill="#093f68"></path><path d="M200.76,187.36H257.1a4.78,4.78,0,0,1,4.78,4.78V225a0,0,0,0,1,0,0H196a0,0,0,0,1,0,0V192.14A4.78,4.78,0,0,1,200.76,187.36Z" fill="#f56132"></path><path d="M261.88,226H196a1,1,0,0,1-1-1V192.14a5.78,5.78,0,0,1,5.78-5.78H257.1a5.78,5.78,0,0,1,5.78,5.78V225A1,1,0,0,1,261.88,226ZM197,224h63.9V192.14a3.79,3.79,0,0,0-3.78-3.78H200.76a3.79,3.79,0,0,0-3.78,3.78Z" fill="#093f68"></path><path d="M192.78,225h72.31a0,0,0,0,1,0,0v0a4.82,4.82,0,0,1-4.82,4.82H197.6a4.82,4.82,0,0,1-4.82-4.82v0A0,0,0,0,1,192.78,225Z" fill="#f56132"></path><path d="M260.26,230.84H197.6a5.83,5.83,0,0,1-5.82-5.82,1,1,0,0,1,1-1h72.3a1,1,0,0,1,1,1A5.83,5.83,0,0,1,260.26,230.84ZM193.91,226a3.83,3.83,0,0,0,3.69,2.82h62.66A3.83,3.83,0,0,0,264,226Z" fill="#093f68"></path><path d="M228.19,188.36a1,1,0,0,1-1-1v-18a1,1,0,0,1,2,0v18A1,1,0,0,1,228.19,188.36Z" fill="#093f68"></path><path d="M133.36,200.91h28a0,0,0,0,1,0,0v19.74a9.19,9.19,0,0,1-9.19,9.19h-9.62a9.19,9.19,0,0,1-9.19-9.19V200.91A0,0,0,0,1,133.36,200.91Z" fill="#ffbc0e"></path><path d="M152.17,230.84h-9.62a10.2,10.2,0,0,1-10.19-10.19V200.91a1,1,0,0,1,1-1h28a1,1,0,0,1,1,1v19.74A10.2,10.2,0,0,1,152.17,230.84Zm-17.81-28.93v18.74a8.19,8.19,0,0,0,8.19,8.19h9.62a8.2,8.2,0,0,0,8.19-8.19V201.91Z" fill="#093f68"></path><rect x="110.51" y="229.84" width="178.98" height="11.75" rx="5.88" fill="#725858"></rect><path d="M283.61,242.59H116.39a6.88,6.88,0,1,1,0-13.75H283.61a6.88,6.88,0,1,1,0,13.75ZM116.39,230.84a4.88,4.88,0,1,0,0,9.75H283.61a4.88,4.88,0,1,0,0-9.75Z" fill="#093f68"></path><path d="M163,221h-1.63a1,1,0,0,1-1-1V204.13a1,1,0,0,1,1-1H163A9,9,0,1,1,163,221Zm-.63-2H163a7,7,0,1,0,0-13.91h-.63Z" fill="#093f68"></path><rect x="113.22" y="112.98" width="64.28" height="54.07" rx="2.5" fill="#fff"></rect><path d="M175,168.05H115.71a3.5,3.5,0,0,1-3.49-3.5V115.47a3.49,3.49,0,0,1,3.49-3.49H175a3.5,3.5,0,0,1,3.5,3.49v49.08A3.5,3.5,0,0,1,175,168.05ZM115.71,114a1.49,1.49,0,0,0-1.49,1.49v49.08a1.5,1.5,0,0,0,1.49,1.5H175a1.5,1.5,0,0,0,1.5-1.5V115.47A1.5,1.5,0,0,0,175,114Z" fill="#093f68"></path><path d="M115.71,113H175a2.5,2.5,0,0,1,2.5,2.5v4.33a0,0,0,0,1,0,0H113.22a0,0,0,0,1,0,0v-4.33A2.5,2.5,0,0,1,115.71,113Z" fill="#68e1fd"></path><path d="M177.5,120.81H113.22a1,1,0,0,1-1-1v-4.34a3.49,3.49,0,0,1,3.49-3.49H175a3.5,3.5,0,0,1,3.5,3.49v4.34A1,1,0,0,1,177.5,120.81Zm-63.28-2H176.5v-3.34A1.5,1.5,0,0,0,175,114H115.71a1.49,1.49,0,0,0-1.49,1.49Z" fill="#093f68"></path><circle cx="118.21" cy="116.39" r="1.34" fill="#093f68"></circle><circle cx="121.96" cy="116.39" r="1.34" fill="#093f68"></circle><circle cx="125.72" cy="116.39" r="1.34" fill="#093f68"></circle><path d="M137.09,138.65l-9.25,4.22v.07l9.25,4.22v4.62l-14.77-6.73v-4.29L137.09,134Z" fill="#093f68"></path><path d="M148.06,127.33l3.32,1.19L142.63,155l-3.3-1.19Z" fill="#093f68"></path><path d="M153.63,147.16l9.25-4.22v-.07l-9.25-4.22V134l14.76,6.73v4.29l-14.76,6.73Z" fill="#093f68"></path></svg>